<svg xmlns="http://www.w3.org/2000/svg" viewBox="0 0 448 512" fill="white">
  <path d="M224 202.66A53.34 53.34 0 1 0 277.34 256 53.38 53.38 0 0 0 224 202.66zm124.71-41a54 54 0 0 0-30.34-30.34C293.66 124 256 123.2 224 123.2s-69.66.8-94.37 8.12a54 54 0 0 0-30.34 30.34C91.2 150.34 90.4 188 90.4 220s.8 69.66 8.12 94.37a54 54 0 0 0 30.34 30.34C154.34 323.66 192 324.46 224 324.46s69.66-.8 94.37-8.12a54 54 0 0 0 30.34-30.34c7.32-24.71 8.12-62.37 8.12-94.37s-.8-69.66-8.12-94.37zM224 338c-62.6 0-113.6-51-113.6-113.6S161.4 110.8 224 110.8 337.6 161.8 337.6 224.4 286.6 338 224 338zm146.4-194.4a30.4 30.4 0 1 1-30.4-30.4 30.4 30.4 0 0 1 30.4 30.4z"/>
</svg>