<svg xmlns="http://www.w3.org/2000/svg" viewBox="0 0 496 512" fill="white">
  <path d="M248 8C111 8 0 119 0 256s111 248 248 248 248-111 248-248S385 8 248 8zm121.6 365.1c-5.3 8.8-16.6 11.6-25.4 6.3-69.6-42.3-157.2-51.9-260.7-28.7-10 2.2-20.1-4.2-22.3-14.3-2.2-10 4.2-20.1 14.3-22.3 114.3-25.1 213.4-14.1 292.3 33.3 8.8 5.3 11.6 16.6 6.3 25.7zm32.5-65.6c-6.6 10.7-20.7 14.1-31.4 7.5-79.5-48.3-200.5-62.3-294.7-34.5-12.1 3.5-24.9-3.3-28.4-15.4-3.5-12.1 3.3-24.9 15.4-28.4 109.6-31.6 243.2-16.1 334.2 39.1 10.7 6.6 14.1 20.7 7.5 31.7zm5.7-70.2c-93.9-55.4-250.2-60.5-342.2-33.6-14.2 4.1-29.1-4.2-33.2-18.4-4.1-14.2 4.2-29.1 18.4-33.2 104.9-30.6 278.6-24.4 387.6 39.6 13.1 7.7 17.5 24.6 9.8 37.7-7.7 13.1-24.6 17.5-37.7 9.8z"/>
</svg>