<svg xmlns="http://www.w3.org/2000/svg" viewBox="0 0 576 512" fill="white">
  <path d="M549.655 124.083c-6.281-23.65-24.812-42.281-48.437-48.562C456.812 64 288 64 288 64s-168.812 0-213.218 11.521c-23.625 6.281-42.156 24.912-48.437 48.562C16 168.521 16 256 16 256s0 87.479 10.345 131.917c6.281 23.65 24.812 42.281 48.437 48.562C119.188 448 288 448 288 448s168.812 0 213.218-11.521c23.625-6.281 42.156-24.912 48.437-48.562C560 343.479 560 256 560 256s0-87.479-10.345-131.917zM232 336V176l142.857 80L232 336z"/>
</svg>